<?xml version="1.0" standalone="no"?>
<!DOCTYPE svg PUBLIC "-//W3C//DTD SVG 1.1//EN" "http://www.w3.org/Graphics/SVG/1.1/DTD/svg11.dtd" >
<!--
2013-9-30: Created.
-->
<svg>
<metadata>
Created by iconfont
</metadata>
<defs>

<font id="font_family" horiz-adv-x="1024" >
  <font-face
    font-family="font_family"
    font-weight="500"
    font-stretch="normal"
    units-per-em="1024"
    ascent="896"
    descent="-128"
  />
    <missing-glyph />
    
    <glyph glyph-name="icon_chart" unicode="&#58881;" d="M921.6 742.4v-614.4h-238.9504l187.4432-202.2912-142.336-1.8432L563.2 101.2736l24.9344 26.7264H416.8704l32.5632-32.5632-165.2224-165.2224-143.104 1.6896L337.2032 128H102.4V742.4H0V844.8h1024v-102.4h-102.4z m-102.4 0H204.8v-512h614.4V742.4z m-192.6144-102.0928L512 563.2l152.7808-102.4-38.1952-25.6-38.1952-25.6L473.8048 332.8l-76.3904 51.2L512 460.8l-76.3904 51.2-38.1952 25.6-38.1952 25.6 190.976 128.3072z"  horiz-adv-x="1024" />

    
    <glyph glyph-name="icon_map" unicode="&#58882;" d="M512-128a512 512 0 1 0 512 512 512 512 0 0 0-512-512z m0 921.6a409.6 409.6 0 1 1 409.6-409.6 409.6 409.6 0 0 1-409.6 409.6z m313.5488-571.8016c-63.3856-25.6-153.1904 151.7568-154.7776 164.7616s47.8208 71.0144 32.256 88.7296c-20.48 23.0912-76.8-21.6576-96.7168-6.3488s-15.7184 82.3808-38.7072 82.3808 22.3744 72.5504 38.7072 88.6784c0 0 273.5616-91.5456 219.2384-418.2016z m-367.5648 139.3664c-50.5344-40.192-31.0272-38.5024-77.3632 0-23.9104 19.8656-31.6928-2.048-51.5584-12.6976s45.2096-66.56 19.3536-76.032S176.384 332.8 193.5872 449.8944s83.8144 133.12 83.8144 133.12-22.2208 14.1824 25.6-6.3488a77.6192 77.6192 0 0 0 45.1584-38.0416c10.24-3.6352 44.288 68.5568 104.8576 39.5776 52.0192-24.9344-25.6-58.9824-33.6896-77.6192a27.9552 27.9552 0 0 1 19.3536-44.3392c25.1392-2.048 74.1376 51.456 100.3008 20.48 57.8048-68.352-18.7904-66.048-80.9984-115.5584z m64.256-63.3344l83.8144-101.376s-91.2896-139.776-90.2656-183.7568-72.4992 40.6528-64.4608 101.376c5.12 39.1168-39.0656 63.5904-48.384 98.7136a100.096 100.096 0 0 0 29.0304 78.6944z"  horiz-adv-x="1024" />

    
    <glyph glyph-name="icon_trend" unicode="&#58883;" d="M921.6 435.2V581.5296l-205.824-296.96 0.5632-0.512-1.4848-0.8704-30.72-44.032-22.9888 13.2608-36.9664-21.248-186.5728 141.824-265.2672-338.688-88.6784 51.2 307.2 392.192 5.12-2.9184 54.8864 62.1056 190.1568-181.1456L837.9392 640H716.8V742.4h307.2v-307.2h-102.4z"  horiz-adv-x="1024" />

    
    <glyph glyph-name="icon_line" unicode="&#58884;" d="M153.6-76.8H51.2V844.8h102.4v-819.2h819.2v-102.4H153.6zM767.5392 437.5552l-1.4848-0.8704-30.72-44.032-22.9888 13.2608-36.9664-21.248-186.5728 90.7264-162.8672-287.488-88.6784 51.2 204.8 340.992 5.12-2.9184 54.8864 62.1056 190.1568-129.9456L889.1392 793.6H972.8v-58.4704l-205.824-296.96z"  horiz-adv-x="1024" />

    
    <glyph glyph-name="icon_relation" unicode="&#58885;" d="M819.2-76.8a153.6 153.6 0 1 0 153.6 153.6 153.6 153.6 0 0 0-153.6-153.6z m0 204.8a51.2 51.2 0 1 1 51.2-51.2 51.2 51.2 0 0 1-51.2 51.2z m-307.2 409.6h-1.024l-207.7696-345.1392A153.9072 153.9072 0 0 0 348.9792 128H665.6v-102.4H348.9792A153.344 153.344 0 1 0 204.8 230.4h0.9728l207.2576 344.2176A152.832 152.832 0 1 0 512 537.6z m-358.4-460.8a51.2 51.2 0 1 1 51.2 51.2 51.2 51.2 0 0 1-51.2-51.2z m358.4 665.6a51.2 51.2 0 1 1 51.2-51.2 51.2 51.2 0 0 1-51.2 51.2z"  horiz-adv-x="1024" />

    
    <glyph glyph-name="icon_form" unicode="&#58886;" d="M102.4 793.6h358.4v-358.4H102.4V793.6z m102.4-102.4h153.6v-153.6H204.8V691.2z m-102.4-358.4h358.4v-358.4H102.4v358.4z m102.4-102.4h153.6v-153.6H204.8v153.6z m358.4 102.4h358.4v-358.4h-358.4v358.4z m102.4-102.4h153.6v-153.6h-153.6v153.6z m76.8 563.2A179.2 179.2 0 1 0 563.2 614.4 179.2 179.2 0 0 0 742.4 793.6z m0-102.4A76.8 76.8 0 1 0 665.6 614.4 76.8 76.8 0 0 0 742.4 691.2z"  horiz-adv-x="1024" />

    
    <glyph glyph-name="icon_vs" unicode="&#58887;" d="M1024 691.2h-460.8v-665.6h256v-102.4H204.8v102.4h256V691.2H0V793.6h1024v-102.4z m-51.2-256a153.6 153.6 0 0 0-307.2 0 564.736 564.736 0 0 0 82.5856 256h142.0288A564.736 564.736 0 0 0 972.8 435.2z m-153.6 204.8c-28.2624 0-51.2-176.5376-51.2-204.8a51.2 51.2 0 0 1 102.4 0c0 28.2624-22.9376 204.8-51.2 204.8zM358.4 435.2a153.6 153.6 0 0 0-307.2 0 564.736 564.736 0 0 0 82.5856 256h142.0288A564.736 564.736 0 0 0 358.4 435.2zM204.8 640c-28.2624 0-51.2-176.5376-51.2-204.8a51.2 51.2 0 0 1 102.4 0c0 28.2624-22.9376 204.8-51.2 204.8z"  horiz-adv-x="1024" />

    
    <glyph glyph-name="icon_dis" unicode="&#58888;" d="M51.2-76.8v102.4h409.6v102.4h102.4v-102.4h409.6v-102.4H51.2zM460.8 640h102.4v-153.6H460.8V640z m0-256h102.4v-153.6H460.8v153.6z m204.8 152.7296L631.3472 640H614.4a102.4 102.4 0 0 1-204.8 0h-17.0496L358.4 537.6c0-208.8448-105.216-380.8256-307.2-406.0672V235.52c145.152 24.5248 204.8 149.9648 204.8 302.08l51.2 153.6h7.2192a203.8272 203.8272 0 0 0 395.1104 0H716.8l51.2-154.4704c0-152.9856 59.648-279.1424 204.8-303.7696v-104.6016c-201.984 25.2416-307.2 198.3488-307.2 408.3712z"  horiz-adv-x="1024" />

    
    <glyph glyph-name="icon_table" unicode="&#58889;" d="M102.4-76.288v870.4h819.2v-870.4H102.4z m460.8 102.4h256V179.2h-256v-153.088zM819.2 281.6V435.2h-256v-153.6h256zM204.8 26.112h256V179.2H204.8v-153.088zM460.8 281.6V435.2H204.8v-153.6h256zM204.8 691.712V537.6h614.4V691.712H204.8z"  horiz-adv-x="1024" />

    
    <glyph glyph-name="icon_diagram" unicode="&#58890;" d="M819.2-25.6v70.7072l-380.0064 219.392-233.472-187.2384L204.8 78.8992V-25.6H102.4V793.6h102.4v-70.7072l372.6336-215.04L819.2 701.44V793.6h102.4v-819.2h-102.4z m0 188.9792v86.528l-231.5264 133.6832-62.7712-50.3296z m-476.16 156.5184L204.8 399.8208v-190.9248zM204.8 604.6208v-86.528l224.1536-129.4336L491.52 438.9888z m468.6336-152.32L819.2 368.1792V569.2416z"  horiz-adv-x="1024" />

    
    <glyph glyph-name="icon_pie" unicode="&#58891;" d="M512-76.8a460.8 460.8 0 1 0 460.8 460.8 460.8 460.8 0 0 0-460.8-460.8z m358.4 512h-5.12A356.4544 356.4544 0 0 1 563.2 737.28V742.4H460.8v-5.12a357.5808 357.5808 0 1 1 404.48-404.48h5.12V435.2z m-307.2-102.4H460.8V737.28a355.0208 355.0208 0 0 0 51.2 5.12 355.072 355.072 0 0 0 51.2-5.12V435.2h302.08a355.328 355.328 0 0 0 5.12-51.2 355.3792 355.3792 0 0 0-5.12-51.2H563.2z"  horiz-adv-x="1024" />

    
    <glyph glyph-name="icon_bar" unicode="&#58892;" d="M870.4-76.8H51.2V844.8h102.4v-819.2h102.4V435.2h102.4v-409.6h153.6v307.2h102.4v-307.2h153.6V691.2h102.4v-665.6h102.4v-102.4h-102.4z"  horiz-adv-x="1024" />

    
    <glyph glyph-name="icon_dot" unicode="&#58893;" d="M51.2-76.8V844.8h102.4v-819.2h819.2v-102.4H51.2zM844.8 640A76.8 76.8 0 1 0 921.6 716.8 76.8 76.8 0 0 0 844.8 640z m-153.6-256A76.8 76.8 0 1 0 768 460.8a76.8 76.8 0 0 0-76.8-76.8z m-307.2-204.8A76.8 76.8 0 1 0 460.8 256 76.8 76.8 0 0 0 384 179.2z m0 307.2A76.8 76.8 0 1 0 460.8 563.2 76.8 76.8 0 0 0 384 486.4z"  horiz-adv-x="1024" />

    
    <glyph glyph-name="icon_circle" unicode="&#58894;" d="M512 384m-512 0a512 512 0 1 1 1024 0 512 512 0 1 1-1024 0Z"  horiz-adv-x="1024" />

    
    <glyph glyph-name="icon_strip" unicode="&#58895;" d="M0 896h236.307692v-1024H0zM393.846154 502.153846h236.307692v-630.153846h-236.307692zM787.692308 659.692308h236.307692v-787.692308h-236.307692z"  horiz-adv-x="1024" />

    
    <glyph glyph-name="icon_scatter" unicode="&#58896;" d="M118.153846 777.846154m-118.153846 0a118.153846 118.153846 0 1 1 236.307692 0 118.153846 118.153846 0 1 1-236.307692 0ZM512 777.846154m-118.153846 0a118.153846 118.153846 0 1 1 236.307692 0 118.153846 118.153846 0 1 1-236.307692 0ZM905.846154 777.846154m-118.153846 0a118.153846 118.153846 0 1 1 236.307692 0 118.153846 118.153846 0 1 1-236.307692 0ZM118.153846 384m-118.153846 0a118.153846 118.153846 0 1 1 236.307692 0 118.153846 118.153846 0 1 1-236.307692 0ZM512 384m-118.153846 0a118.153846 118.153846 0 1 1 236.307692 0 118.153846 118.153846 0 1 1-236.307692 0ZM905.846154 384m-118.153846 0a118.153846 118.153846 0 1 1 236.307692 0 118.153846 118.153846 0 1 1-236.307692 0ZM118.153846-9.846154m-118.153846 0a118.153846 118.153846 0 1 1 236.307692 0 118.153846 118.153846 0 1 1-236.307692 0ZM512-9.846154m-118.153846 0a118.153846 118.153846 0 1 1 236.307692 0 118.153846 118.153846 0 1 1-236.307692 0ZM905.846154-9.846154m-118.153846 0a118.153846 118.153846 0 1 1 236.307692 0 118.153846 118.153846 0 1 1-236.307692 0Z"  horiz-adv-x="1024" />

    
    <glyph glyph-name="icon_special" unicode="&#58897;" d="M0 179.2l230.679273 380.043636 220.625454-328.843636L704.046545 896l215.505455-387.956364L1210.181818 588.8V-128H0z"  horiz-adv-x="1210" />

    
    <glyph glyph-name="yuque" unicode="&#58899;" d="M593.66436297 815.97765899c-49.69125507 0-78.21988214-1.81226841-78.21988217-1.81226839s104.46855616-64.36479163 62.61098274-179.29774167c-30.10705531-59.92180879-77.16759594-109.32076198-127.73575654-165.20881098l-0.17538069-0.116919-2.39687208-2.68917395a97.33639936 97.33639936 0 0 1-3.91684084-3.9753003C274.06190063 277.20753060000004 7.19062862-18.250827970000046 7.19062862-18.250827970000046c292.24304266-74.24458183 488.37735062 6.43063408 605.06410953 104.05933309h2.33841262c0.58460368 0.52614202 1.11074571 1.05228623 1.75380889 1.51996873 23.3841194 0.17538069 41.15605074 0.29230186 53.19887286 0.29230185 162.22733301 0 299.31673774 136.21249919 293.70454972 287.80005985-3.85837915 104.17625648-38.11611546 127.67729703-49.86663574 173.33479009-11.80897979 45.59903356 11.80897979 118.32364887 87.63198982 144.16309982l-81.14289626 4.20914266S889.18118325 801.3625841 748.46723955 810.65777062C686.03163748 814.80845378 633.24198763 815.97765899 593.78128414 815.97765899h-0.11692117z"  horiz-adv-x="1024" />

    
    <glyph glyph-name="github" unicode="&#58900;" d="M522.53187492 867.72107533a486.06991699 486.06991699 0 0 1-153.71961143-947.28950899c24.30349563-4.49614591 33.29578974 10.51126202 33.29578975 23.33135476 0 11.60491842-0.48606927 49.94368345-0.6683473 90.53052372-135.2489539-29.40723101-163.80556197 57.35624957-163.80556189 57.35624956-22.05542267 56.14107527-53.95376009 71.08772539-53.95376011 71.08772539-44.11084532 30.19709385 3.34173168 29.58950669 3.34172938 29.58950666 48.78926691-3.46324725 74.49021484-50.12595913 74.49021483-50.12596141 43.3817403-74.30793919 113.67960284-52.79934589 141.44634571-40.40456229 4.37463029 31.47302826 17.01244741 52.86010367 30.86544111 65.0118515-107.96828026 12.2732657-221.4656051 54.01452017-221.4656074 240.24005847 0 53.04237933 19.01748458 96.42411961 50.12596144 130.44901213-5.10373307 12.2732657-21.69086898 61.67011978 4.67842159 128.62625292 0 0 40.82987378 13.06312853 133.66922826-49.82216787A466.26256727 466.26256727 0 0 0 522.53187492 632.70627013a466.62712098 466.62712098 0 0 0 121.76051388-16.40486025c92.77859436 62.88529641 133.54771028 49.82216555 133.54771033 49.82216787 26.43005069-66.95613086 9.84291472-116.35298724 4.79993945-128.62625292a187.74450621 187.74450621 0 0 0 50.00444356-130.44901213c0-186.71160756-113.74036059-227.84527258-221.95167666-239.814747 17.43775886-15.12892581 32.99199617-44.65767472 32.99199617-90.04445215 0-65.01185146-0.60758718-117.38588588-0.60758716-133.36543234 0-12.94161062 8.74925836-28.13129655 33.41730529-23.33135708A486.06991699 486.06991699 0 0 1 522.53187492 867.72107533z"  horiz-adv-x="1050" />

    
    <glyph glyph-name="wechat" unicode="&#58901;" d="M514.94223796 451.52336315C583.96436624 523.90695852 671.36251395 549.23001092 774.22341384 543.62756511c-2.24097873 10.47657324-2.35302611 18.65614407-5.77051894 25.09895558-16.63926215 31.70984228-29.80500987 66.66910014-52.21479302 93.84096125-134.23459379 162.47091754-404.49656239 181.79935623-561.30901042 40.89785202C73.91772951 630.85764174 40.19100946 539.8739280699999 63.3851326 432.08287705c14.84648124-69.0221283 57.20096784-121.74114078 112.38505589-163.59140793 17.98384939-13.61394347 20.89712071-25.77124814 13.16574766-45.37980739-9.52415806-24.37063723-16.80733737-49.63766593-25.04293185-74.51252463 23.08207577 5.0422006 41.79424347 12.82959936 58.99375084 23.02605 40.33760676 23.97846723 80.33906726 36.97613971 128.85624483 22.18568424 29.35681413-8.90788915 62.52329104-5.37834689 98.2108693-7.73137507-25.88329757 104.76573024-4.76207801 192.21990373 64.98836869 265.49989055z m30.53332611 188.97048402c26.05137074 0.33614628 41.73821767-14.34225973 42.298465-39.6653142 0.56024519-26.05137074-14.06213713-42.01834029-39.21711847-42.57858554-28.79656892-0.67229259-50.59008318 16.69528791-50.81418003 40.61773148-0.16807316 22.97002627 20.72904754 41.23399828 47.7328335 41.62616826zM298.18362181 558.1939237700001c-28.51644837-0.11204947-49.63766593 17.81577622-49.30151962 41.79424347 0.28012261 22.80195313 21.1772433 40.22555937 48.46115391 40.44965625 25.65920076 0.16807316 43.53100069-17.14348368 43.13882861-42.01834032-0.39217207-24.14654041-17.19950735-40.16953364-42.2984629-40.2255594zM988.46092866 440.48654471c-107.39887894 103.47716671-282.41927533 120.11643094-409.93093506 38.99301955-164.76792203-104.76573024-163.36730901-320.06770971 3.6415897-421.13582452 80.17099411-48.5732013 166.952875-62.18714476 258.10466172-37.53638493 18.88024091 5.0422006 34.17491787 3.58556597 50.75815632-6.72293413 22.52183056-13.95008973 46.50029777-25.5471513 69.91851987-38.2086775l5.0422006 3.753637c-6.4428115 22.4097811-14.17418658 44.4273922-18.54409461 67.22934747a37.08818919 37.08818919 0 0 0 7.78739874 27.45198163c14.90250493 17.14348368 33.61467265 30.9254982 48.46115393 48.06898187 87.6222466 101.34823744 81.4035319 225.10625803-15.23865121 318.10685356z m-322.58881109-122.69355596c-19.49650978-0.33614628-35.29540619 14.79045547-34.73516096 33.11045322 0.67229259 18.03987515 14.90250493 30.81345081 34.3990147 30.75742503 21.40134221-0.05602371 38.93699585-15.07057808 38.32072698-32.77430483-0.56024519-16.47118901-18.09589885-30.81345081-37.98458072-31.09357342z m194.57293192-0.05602368c-17.70372678 0.28012261-34.56708786 15.40672438-34.9592599 31.4297197-0.44819574 17.19950735 16.63926215 32.66225748 35.91167508 32.49418224 22.01761111-0.16807316 37.98458068-14.56635865 37.08818916-33.50262319-0.72831834-16.86336108-18.09589885-30.75742502-38.04060434-30.42127875z"  horiz-adv-x="1131" />

    
    <glyph glyph-name="blog" unicode="&#58902;" d="M596.375 341.8125H425.48750027a42.29999973 42.29999973 0 0 1-42.1875-42.1875c0-23.17500027 19.01249973-42.1875 42.1875-42.1875H596.375c23.23124973 0 42.1875 19.01249973 42.1875 42.1875A42.29999973 42.29999973 0 0 1 596.375 341.8125zM425.48750027 468.375h109.6875c23.23124973 0 42.1875 18.95625027 42.1875 42.1875a42.29999973 42.29999973 0 0 1-42.1875 42.1875h-109.6875a42.29999973 42.29999973 0 0 1-42.1875-42.1875c0-23.23124973 19.01249973-42.1875 42.1875-42.1875z m255.26249973 42.1875V468.375c0-23.17500027 18.95625027-42.1875 42.1875-42.1875s42.1875-18.95625027 42.1875-42.1875v-126.5625A126.39375001 126.39375001 0 0 0 638.5625 130.875h-253.125A126.39375001 126.39375001 0 0 0 258.875 257.4375V552.75a126.39375001 126.39375001 0 0 0 126.5625 126.5625h168.75A126.39375001 126.39375001 0 0 0 680.75 552.75v-42.1875z m168.75 295.3125h-675C127.69999973 805.875 90.125 768.30000027 90.125 721.5v-675c0-46.40625001 37.96875001-84.375 84.375-84.375h675c46.40625001 0 84.375 37.96875001 84.375 84.375v675A84.375 84.375 0 0 1 849.5 805.875z"  horiz-adv-x="1024" />

    
    <glyph glyph-name="icon_zcool" unicode="&#58905;" d="M914.50026667 435.33653332c-23.30168889-11.65084445-58.25422222-23.30168889-87.38133334-23.30168888 46.60337778 40.77795555 93.20675555 87.38133333 110.68302223 151.46097778 23.30168889 81.55591111 23.30168889 157.2864 0 233.01688888 0 5.82542222-5.82542222 11.65084445-17.47626666 11.65084445-5.82542222 0-11.65084445 0-17.47626667-5.82542223-64.07964445-93.20675555-145.63555555-151.46097778-233.0168889-168.93724443 29.12711111 58.25422222 58.25422222 122.33386667 52.4288 186.4135111 0 5.82542222-5.82542222 11.65084445-11.65084443 17.47626667h-5.82542223c-5.82542222 0-11.65084445 0-11.65084444-5.82542222-93.20675555-99.03217778-168.93724445-122.33386667-262.144-122.33386667-99.03217778 0-198.06435555-52.4288-262.144-133.98471111s-93.20675555-186.41351111-81.55591112-291.27111111c23.30168889-163.11182222 139.81013333-291.27111111 302.92195556-314.5728 17.47626667-5.82542222 40.77795555-5.82542222 58.25422223-5.82542223 128.15928889 0 244.66773333 69.90506667 314.5728 198.06435557 5.82542222 11.65084445 17.47626667 29.12711111 34.95253333 40.77795555 64.07964445 46.60337778 110.68302222 104.8576 139.81013333 174.76266666 5.82542222 11.65084445 5.82542222 23.30168889 11.65084444 34.95253334v5.82542222 5.82542223c0 5.82542222 0 11.65084445-5.82542222 17.47626666-5.82542222 0-5.82542222 5.82542222-11.65084445 5.82542222-11.65084445-5.82542222-11.65084445-5.82542222-17.47626666-11.65084445zM122.24284445 313.00266666000005c17.47626667-52.4288 110.68302222-64.07964445 110.68302222-64.07964444C151.36995556 155.71626665999997 122.24284445 313.00266666000005 122.24284445 313.00266666000005z m227.19146666-69.90506667s192.23893333 23.30168889 267.96942222 93.20675556c0 0-110.68302222-262.144-267.96942222-93.20675556z"  horiz-adv-x="1024" />

    
    <glyph glyph-name="icon_weibo" unicode="&#58903;" d="M747.74755555 400.384c-16.384 0-32.768 10.92266667-21.84533333 27.30666667 10.92266667 16.384 27.30666667 70.99733333-5.46133333 103.76533333-38.22933333 38.22933333-120.14933333 21.84533333-174.76266667 0-60.07466667-21.84533333-54.61333333-5.46133333-54.61333333 10.92266667 0 16.384 32.768 114.688-60.07466667 125.61066666-125.61066667 16.384-283.98933333-136.53333333-338.60266667-223.91466666C5.00622222 307.54133333000004 15.92888889 220.15999999999997 15.92888889 220.15999999999997c10.92266667-125.61066667 196.608-223.91466667 420.52266666-223.91466667 191.14666667 0 354.98666667 70.99733333 404.13866667 169.30133334 5.46133333 10.92266667 10.92266667 21.84533333 10.92266667 32.768 5.46133333 27.30666667 10.92266667 65.536 0 103.76533333-21.84533333 70.99733333-87.38133333 98.304-103.76533334 98.304z m-338.60266666-349.52533333c-158.37866667 0-289.45066667 87.38133333-289.45066667 191.14666666s131.072 191.14666667 289.45066667 191.14666667c163.84 0 289.45066667-87.38133333 289.45066666-191.14666667s-125.61066667-191.14666667-289.45066666-191.14666666z m393.216 420.52266666h10.92266666c10.92266667 0 16.384 5.46133333 21.84533334 16.384 5.46133333 16.384 10.92266667 27.30666667 10.92266666 43.69066667 0 65.536-54.61333333 114.688-114.688 114.688-16.384 0-32.768-5.46133333-49.152-10.92266667-10.92266667-5.46133333-16.384-16.384-10.92266666-27.30666666 5.46133333-10.92266667 16.384-16.384 32.768-10.92266667 10.92266667 5.46133333 16.384 5.46133333 27.30666666 5.46133333 38.22933333 0 70.99733333-32.768 70.99733334-65.536 0-10.92266667 0-16.384-5.46133334-27.30666666-10.92266667-16.384-5.46133333-32.768 5.46133334-38.22933334zM725.90222222 788.13866667c-27.30666667 0-54.61333333-5.46133333-76.45866667-10.92266667-16.384-5.46133333-27.30666667-27.30666667-21.84533333-43.69066667 5.46133333-16.384 21.84533333-27.30666667 43.69066667-21.84533333 16.384 5.46133333 38.22933333 5.46133333 60.07466666 5.46133333 109.22666667 0 202.06933333-87.38133333 202.06933334-196.608 0-21.84533333-5.46133333-38.22933333-10.92266667-60.07466666-5.46133333-16.384 5.46133333-38.22933333 21.84533333-43.69066667h10.92266667c16.384 0 27.30666667 10.92266667 32.768 27.30666667 5.46133333 21.84533333 10.92266667 49.152 10.92266667 76.45866666 0 147.456-120.14933333 267.60533333-273.06666667 267.60533334z m-344.064-425.984c-87.38133333 0-152.91733333-60.07466667-152.91733333-136.53333334s70.99733333-136.53333333 152.91733333-136.53333333 152.91733333 60.07466667 152.91733333 136.53333333-65.536 136.53333333-152.91733333 136.53333334z m-49.152-218.45333334c-27.30666667 0-54.61333333 21.84533333-54.61333333 54.61333334 0 27.30666667 21.84533333 54.61333333 54.61333333 54.61333333 27.30666667 0 54.61333333-21.84533333 54.61333333-54.61333333s-27.30666667-54.61333333-54.61333333-54.61333334z m103.76533333 92.84266667c-10.92266667-10.92266667-21.84533333-10.92266667-32.768-5.46133333-10.92266667 5.46133333-10.92266667 16.384-5.46133333 32.768 5.46133333 5.46133333 21.84533333 10.92266667 32.768 5.46133333 5.46133333-5.46133333 10.92266667-21.84533333 5.46133333-32.768z"  horiz-adv-x="1024" />

    
    <glyph glyph-name="personalweb" unicode="&#58904;" d="M973.83649881 474.97220298l-164.69117688 128.77388635 0.05620825 0.39346023V741.00747364a3.76597596 3.76597596 0 0 1-3.65355862 3.87839245h-81.16520774a3.76597596 3.76597596 0 0 1-3.7097677-3.87839246v-68.124815L560.25367193 798.22782101a35.52383112 35.52383112 0 0 1-44.17995382-0.11241732L104.7392345 475.19703681a39.28980624 39.28980624 0 0 1 0-61.09874067 35.80487403 35.80487403 0 0 1 44.40478848 0.11241733l384.46677604 301.95256201a7.41953457 7.41953457 0 0 0 9.16200027 0l388.12033465-303.18915097c6.40777944-5.05877317 14.05214785-7.64436841 22.03376826-7.64436841a36.08591693 36.08591693 0 0 1 30.07159771 16.13186555 40.18914404 40.18914404 0 0 1-9.1620011 53.51058133zM886.60076279 395.83050385l-169.74995087 127.8183403-172.7852146 130.17910171a8.31887155 8.31887155 0 0 1-10.11754714 1e-8L361.2752529 523.6488441500001l-169.74995087-127.81834031a20.23509348 20.23509348 0 0 1-7.86920306-16.07565811v-358.10494601c0-32.43235831 25.46249304-58.90660566 56.65826156-58.90660483h216.7403346v235.06433597c0 27.4297934 21.58409976 49.85702188 47.94592978 49.85702188H572.9568135c26.36183002 0 47.94592978-22.48343756 47.94593061-49.85702188V-37.256705109999984H837.69928696c31.19576935 0 56.65826157 26.47424735 56.65826156 58.90660483v358.04873776a20.01025882 20.01025882 0 0 1-7.86920306 16.13186637z"  horiz-adv-x="1092" />

    
    <glyph glyph-name="feedback" unicode="&#58906;" d="M346.508387 499.612903a49.548387 49.548387 0 1 0-99.129806 0.033032A49.548387 49.548387 0 0 0 346.508387 499.612903M561.218065 499.612903a49.548387 49.548387 0 1 0-99.129807 0.033032A49.548387 49.548387 0 0 0 561.218065 499.612903M775.927742 499.612903a49.548387 49.548387 0 1 0-99.129807 0.033032A49.548387 49.548387 0 0 0 775.927742 499.612903"  horiz-adv-x="1024" />

    
    <glyph glyph-name="icon_category" unicode="&#58907;" d="M614.4-25.6v307.2h307.2v-307.2h-307.2z m0 665.6h307.2v-307.2h-307.2V640z m-358.4-358.4h307.2v-307.2H256v307.2zM102.4 793.6h460.8v-460.8H102.4V793.6z m102.4-102.4h256v-256H204.8V691.2z"  horiz-adv-x="1024" />

    
    <glyph glyph-name="icon_feature" unicode="&#58908;" d="M512 793.6a409.6 409.6 0 1 0-409.6-409.6 409.6 409.6 0 0 0 409.6 409.6z m0-204.8l67.4816-128.7168L716.8 432.3328l-95.5392-107.52 17.3056-145.6128L512 241.6128 385.4336 179.2l17.3568 145.8688L307.2 432.3328l137.2672 27.7504L512 588.8"  horiz-adv-x="1024" />

    
    <glyph glyph-name="icon_shape" unicode="&#58909;" d="M870.4 332.8h-256a51.2 51.2 0 0 0-51.2 51.2V640a51.2 51.2 0 0 0 51.2 51.2h256a51.2 51.2 0 0 0 51.2-51.2v-256a51.2 51.2 0 0 0-51.2-51.2z m-51.2 256h-153.6v-153.6h153.6V588.8zM307.2 384a204.8 204.8 0 1 0 204.8 204.8 204.8 204.8 0 0 0-204.8-204.8z m460.8-409.6H153.6l305.3568 358.4z"  horiz-adv-x="1024" />

    
    <glyph glyph-name="icon_structure" unicode="&#58910;" d="M716.8-25.6v256h204.8v-256h-204.8z m-153.6 307.2H460.8v51.2H102.4V435.2h358.4V486.4h102.4v-51.2h358.4v-102.4h-358.4v-51.2zM102.4 793.6h819.2v-204.8H102.4V793.6z m204.8-819.2H102.4v256h204.8v-256z m307.2 0H409.6v256h204.8v-256z"  horiz-adv-x="1024" />

    
    <glyph glyph-name="icon_often" unicode="&#58911;" d="M765.7472 319.232a221.3376 221.3376 0 0 0-59.1872-42.752 294.2976 294.2976 0 0 0 1.536-165.5296l-1.1264-9.5744-177.152-125.3888a56.7296 56.7296 0 0 0-68.4032 40.2944l-4.0448 145.7152a137.7792 137.7792 0 0 0-123.3408 38.5536 140.3392 140.3392 0 0 0-38.2464 124.0576l-151.3984 2.5088a56.0128 56.0128 0 0 0-39.2704 68.5056l129.3312 182.272 7.9872 5.12a252.8768 252.8768 0 0 0 168.96-2.9696 223.4368 223.4368 0 0 0 40.3456 55.7056c86.6816 87.3984 410.2656 195.2256 457.8816 145.0496s-57.1904-374.1696-143.872-461.568z m-32.7168 283.5456a92.16 92.16 0 0 1-130.816 0 93.7984 93.7984 0 0 1 0-131.8912 92.16 92.16 0 0 1 130.816 0 93.7984 93.7984 0 0 1 0 131.8912zM242.432 292.864a222.8224 222.8224 0 0 1 52.1728-131.7376 220.16 220.16 0 0 1 130.9696-52.9408l-124.2624-125.2864-13.1072 65.9456-163.4816-59.392 58.8288 164.9152-65.4336 13.2096z"  horiz-adv-x="1024" />

    
    <glyph glyph-name="icon_circle1" unicode="&#58912;" d=""  horiz-adv-x="1024" />

    
    <glyph glyph-name="icon_other" unicode="&#58913;" d="M204.8 486.4a102.4 102.4 0 1 0-102.4-102.4 102.4 102.4 0 0 0 102.4 102.4z m307.2 0a102.4 102.4 0 1 0-102.4-102.4 102.4 102.4 0 0 0 102.4 102.4z m307.2 0a102.4 102.4 0 1 0-102.4-102.4 102.4 102.4 0 0 0 102.4 102.4z"  horiz-adv-x="1024" />

    
    <glyph glyph-name="icon_rectangle" unicode="&#58914;" d=""  horiz-adv-x="1024" />

    
    <glyph glyph-name="icon_tree" unicode="&#58915;" d="M921.6-25.6H51.2V742.4h972.8v-768h-102.4zM409.6 640H153.6v-307.2h256V640z m0-409.6H153.6v-153.6h256v153.6z m102.4 51.2v-204.8h153.6v307.2h-153.6v-102.4z m409.6 358.4h-409.6v-153.6h409.6V640z m0-256h-153.6v-307.2h153.6v307.2z"  horiz-adv-x="1024" />

    
    <glyph glyph-name="icon_relation1" unicode="&#58916;" d="M819.2-76.8a153.6 153.6 0 1 0 153.6 153.6 153.6 153.6 0 0 0-153.6-153.6z m0 204.8a51.2 51.2 0 1 1 51.2-51.2 51.2 51.2 0 0 1-51.2 51.2z m-307.2 409.6h-1.024l-207.7696-345.1392A153.9072 153.9072 0 0 0 348.9792 128H665.6v-102.4H348.9792A153.344 153.344 0 1 0 204.8 230.4h0.9728l207.2576 344.2176A152.832 152.832 0 1 0 512 537.6z m-358.4-460.8a51.2 51.2 0 1 1 51.2 51.2 51.2 51.2 0 0 1-51.2-51.2z m358.4 665.6a51.2 51.2 0 1 1 51.2-51.2 51.2 51.2 0 0 1-51.2 51.2z"  horiz-adv-x="1024" />

    
    <glyph glyph-name="icon_triangle" unicode="&#58917;" d=""  horiz-adv-x="1024" />

    
    <glyph glyph-name="zoomin" unicode="&#58919;" d="M505.6 262.4a51.2 51.2 0 0 0-102.4 0v384a51.2 51.2 0 1 0 102.4 0v-384zM646.4 505.6a51.2 51.2 0 0 0 0-102.4h-384a51.2 51.2 0 1 0 0 102.4h384zM787.2 454.4a332.8 332.8 0 1 1-665.7024-0.1024 332.8 332.8 0 0 1 665.7024 0.1024z m102.4 0A435.2 435.2 0 1 0 19.0976 454.5024a435.2 435.2 0 0 0 870.5024-0.1024zM979.456 1.7408a51.2 51.2 0 0 0-72.3968-72.3968l-217.344 217.344a51.2 51.2 0 0 0 72.3968 72.3968l217.344-217.344z"  horiz-adv-x="1024" />

    
    <glyph glyph-name="geographical" unicode="&#58920;" d="M751.469714 17.188571000000024l125.513143 319.817143-30.829714 143.433143-67.913143 74.020572-118.710857 47.762285-25.234286 110.006857 68.717714 66.377143A431.981714 431.981714 0 0 1 508.086857 822.857143l-35.401143-82.212572-154.806857-72.411428-104.923428 35.145143A438.930286 438.930286 0 0 1 75.958857 384c0-142.884571 67.84-269.787429 172.836572-349.915429l10.203428 229.961143-121.453714 33.133715V578.742857h176.64l154.587428-137.874286h142.372572v-138.166857l-273.115429-321.243428C391.350857-41.910856999999965 450.194286-54.85714299999995 512-54.85714299999995c88.429714 0 170.715429 26.514286 239.469714 72.045714z m31.707429 23.113143l104.228571 139.044572 60.452572 191.744a439.003429 439.003429 0 0 0-164.681143-330.788572zM511.744 878.518857c272.274286 0 492.982857-220.708571 492.982857-492.982857s-220.708571-492.982857-492.982857-492.982857S18.761143 113.26171399999998 18.761143 385.536 239.469714 878.518857 511.744 878.518857z"  horiz-adv-x="1024" />

    
    <glyph glyph-name="feedback1" unicode="&#58921;" d="M613.937548 218.83871h327.217549c0.132129 0 0.231226 0.099097 0.231226 0.29729V813.122065c0 0.198194-0.099097 0.29729-0.231226 0.29729H82.844903a0.29729 0.29729 0 0 1-0.29729-0.29729v-593.986065c0-0.165161 0.132129-0.29729 0.330322-0.29729h326.854194l102.201806-187.292904 102.003613 187.292904z m39.275355-66.064516L512-106.529032l-141.477161 259.303226H82.844903A66.361806 66.361806 0 0 0 16.516129 219.136V813.122065C16.516129 849.787871 46.245161 879.483871 82.910968 879.483871h858.277161c36.665806 0 66.295742-29.729032 66.295742-66.361806v-593.986065c0-36.665806-29.662968-66.361806-66.295742-66.361806h-287.942194zM346.508387 499.612903a49.548387 49.548387 0 1 0-99.129806 0.033032A49.548387 49.548387 0 0 0 346.508387 499.612903M561.218065 499.612903a49.548387 49.548387 0 1 0-99.129807 0.033032A49.548387 49.548387 0 0 0 561.218065 499.612903M775.927742 499.612903a49.548387 49.548387 0 1 0-99.129807 0.033032A49.548387 49.548387 0 0 0 775.927742 499.612903"  horiz-adv-x="1024" />

    
    <glyph glyph-name="backtop1" unicode="&#58922;" d="M189.90933364-72.55999969000004a79.99999969 79.99999969 0 0 0-113.12000062 113.19999938l800.00000062 800.00000062a79.99999969 79.99999969 0 0 0 113.04 0l800.07999938-800.00000062a79.99999969 79.99999969 0 0 0-113.11999969-113.19999938l-743.52 743.43999938-743.35999969-743.43999938z"  horiz-adv-x="1877" />

    
    <glyph glyph-name="jingqingqidai" unicode="&#58918;" d="M598.698667 438.613333c-30.037333 0-60.074667-8.192-87.381334-21.845333-16.384-8.192-19.114667-30.037333-5.461333-43.690667l92.842667-92.842666-32.768-32.768-92.842667 92.842666a24.7808 24.7808 0 0 1-19.114667 8.192c-10.922667 0-19.114667-5.461333-24.576-16.384-35.498667-70.997333-24.576-161.109333 35.498667-221.184 38.229333-38.229333 84.650667-54.613333 133.802667-54.613333 21.845333 0 43.690667 2.730667 62.805333 10.922667l155.648-150.186667 19.114667-19.114667c10.922667-10.922667 27.306667-10.922667 38.229333 0l19.114667 19.114667 38.229333 38.229333 19.114667 19.114667c10.922667 10.922667 10.922667 27.306667 0 38.229333l-19.114667 19.114667-155.648 150.186667c24.576 68.266667 8.192 144.725333-43.690667 199.338666-38.229333 38.229333-87.381333 57.344-133.802666 57.344z m125.610666-237.568c-8.192-19.114667-2.730667-40.96 13.653334-57.344l155.648-150.186666-38.229334-38.229334-155.648 150.186667a53.930667 53.930667 0 0 1-38.229333 16.384c-5.461333 0-10.922667 0-19.114667-2.730667-13.653333-5.461333-30.037333-8.192-46.421333-8.192-35.498667 0-70.997333 13.653333-95.573333 40.96-32.768 32.768-46.421333 76.458667-38.229334 120.149334l62.805334-62.805334c10.922667-10.922667 24.576-16.384 38.229333-16.384 13.653333 0 27.306667 5.461333 38.229333 16.384l32.768 32.768c21.845333 21.845333 21.845333 57.344 0 76.458667l-62.805333 62.805333c8.192 2.730667 16.384 2.730667 24.576 2.730667 35.498667 0 70.997333-13.653333 95.573333-40.96 38.229333-35.498667 51.882667-90.112 32.768-141.994667zM440.32 465.92c0 16.384-13.653333 27.306667-27.306667 27.306667H249.173333c-13.653333 0-27.306667-10.922667-27.306666-27.306667 0-16.384 13.653333-27.306667 27.306666-27.306667h163.84c13.653333 0 27.306667 13.653333 27.306667 27.306667z m-111.957333-136.533333H254.634667c-16.384 0-30.037333-10.922667-30.037334-27.306667 0-16.384 13.653333-27.306667 30.037334-27.306667h73.728c16.384 0 30.037333 10.922667 30.037333 27.306667 0 16.384-13.653333 27.306667-30.037333 27.306667z m0-163.84H254.634667c-16.384 0-30.037333-10.922667-30.037334-27.306667 0-16.384 13.653333-27.306667 30.037334-27.306667h73.728c16.384 0 30.037333 10.922667 30.037333 27.306667 0 16.384-13.653333 27.306667-30.037333 27.306667zM249.173333 602.453333h491.52c13.653333 0 27.306667 13.653333 27.306667 27.306667s-13.653333 27.306667-27.306667 27.306667H249.173333c-13.653333 0-27.306667-13.653333-27.306666-27.306667s13.653333-27.306667 27.306666-27.306667zM904.533333 875.52H85.333333c-13.653333 0-27.306667-13.653333-27.306666-27.306667v-928.426666c0-16.384 13.653333-27.306667 27.306666-27.306667h409.6c16.384 0 27.306667 10.922667 27.306667 27.306667 0 16.384-10.922667 27.306667-27.306667 27.306666H112.64V820.906667h764.586667v-409.6c0-16.384 10.922667-27.306667 27.306666-27.306667 16.384 0 27.306667 10.922667 27.306667 27.306667V848.213333c0 16.384-13.653333 27.306667-27.306667 27.306667z"  horiz-adv-x="1024" />

    
    <glyph glyph-name="icon_geographical" unicode="&#58923;" d="M751.469714 17.188571000000024l125.513143 319.817143-30.829714 143.433143-67.913143 74.020572-118.710857 47.762285-25.234286 110.006857 68.717714 66.377143A431.981714 431.981714 0 0 1 508.086857 822.857143l-35.401143-82.212572-154.806857-72.411428-104.923428 35.145143A438.930286 438.930286 0 0 1 75.958857 384c0-142.884571 67.84-269.787429 172.836572-349.915429l10.203428 229.961143-121.453714 33.133715V578.742857h176.64l154.587428-137.874286h142.372572v-138.166857l-273.115429-321.243428C391.350857-41.910856999999965 450.194286-54.85714299999995 512-54.85714299999995c88.429714 0 170.715429 26.514286 239.469714 72.045714z m31.707429 23.113143l104.228571 139.044572 60.452572 191.744a439.003429 439.003429 0 0 0-164.681143-330.788572zM511.744 878.518857c272.274286 0 492.982857-220.708571 492.982857-492.982857s-220.708571-492.982857-492.982857-492.982857S18.761143 113.26171399999998 18.761143 385.536 239.469714 878.518857 511.744 878.518857z"  horiz-adv-x="1024" />

    
    <glyph glyph-name="triangle" unicode="&#58925;" d="M574.60869594 864l542.608695-960H32z"  horiz-adv-x="1157" />

    
    <glyph glyph-name="rectangle" unicode="&#58898;" d="M0 896h1024v-1024H0z"  horiz-adv-x="1024" />

    
    <glyph glyph-name="rectangle-copy" unicode="&#58926;" d="M0 896h1024v-1024H0z"  horiz-adv-x="1024" />

    


  </font>
</defs>
</svg>
